<?xml version="1.0" encoding="utf-8" standalone="no"?>
<!DOCTYPE svg PUBLIC "-//W3C//DTD SVG 1.1//EN"
  "http://www.w3.org/Graphics/SVG/1.1/DTD/svg11.dtd">
<!-- Created with matplotlib (https://matplotlib.org/) -->
<svg height="344.06pt" version="1.1" viewBox="0 0 687.5 344.06" width="687.5pt" xmlns="http://www.w3.org/2000/svg" xmlns:xlink="http://www.w3.org/1999/xlink">
 <defs>
  <style type="text/css">
*{stroke-linecap:butt;stroke-linejoin:round;}
  </style>
 </defs>
 <g id="figure_1">
  <g id="patch_1">
   <path d="M 0 344.06 
L 687.5 344.06 
L 687.5 -0 
L 0 -0 
z
" style="fill:#ffffff;"/>
  </g>
  <g id="axes_1">
   <g id="patch_2">
    <path d="M 10.7 155.454545 
L 207.641176 155.454545 
L 207.641176 7.2 
L 10.7 7.2 
z
" style="fill:#ffffff;"/>
   </g>
   <g id="patch_3">
    <path clip-path="url(#p3961cbcda1)" d="M 109.170588 148.715702 
C 127.042209 148.715702 144.18426 141.615232 156.821404 128.978088 
C 169.458548 116.340944 176.559018 99.198893 176.559018 81.327273 
C 176.559018 63.455652 169.458548 46.313601 156.821404 33.676457 
C 144.18426 21.039313 127.042209 13.938843 109.170588 13.938843 
C 91.298968 13.938843 74.156917 21.039313 61.519773 33.676457 
C 48.882629 46.313601 41.782158 63.455652 41.782158 81.327273 
C 41.782158 99.198893 48.882629 116.340944 61.519773 128.978088 
C 74.156917 141.615232 91.298968 148.715702 109.170588 148.715702 
z
"/>
   </g>
   <g id="matplotlib.axis_1"/>
   <g id="matplotlib.axis_2"/>
   <g id="patch_4">
    <path clip-path="url(#p3961cbcda1)" d="M 128.200937 106.832783 
C 133.694192 106.832783 138.963198 104.650289 142.847516 100.765971 
C 146.731835 96.881652 148.914328 91.612647 148.914328 86.119391 
C 148.914328 80.626135 146.731835 75.357129 142.847516 71.472811 
C 138.963198 67.588493 133.694192 65.405999 128.200937 65.405999 
C 122.707681 65.405999 117.438675 67.588493 113.554357 71.472811 
C 109.670038 75.357129 107.487545 80.626135 107.487545 86.119391 
C 107.487545 91.612647 109.670038 96.881652 113.554357 100.765971 
C 117.438675 104.650289 122.707681 106.832783 128.200937 106.832783 
z
" style="fill:#c5e266;"/>
   </g>
   <g id="patch_5">
    <path d="M 10.7 155.454545 
L 10.7 7.2 
" style="fill:none;stroke:#000000;stroke-linecap:square;stroke-linejoin:miter;stroke-width:0.8;"/>
   </g>
   <g id="patch_6">
    <path d="M 207.641176 155.454545 
L 207.641176 7.2 
" style="fill:none;stroke:#000000;stroke-linecap:square;stroke-linejoin:miter;stroke-width:0.8;"/>
   </g>
   <g id="patch_7">
    <path d="M 10.7 155.454545 
L 207.641176 155.454545 
" style="fill:none;stroke:#000000;stroke-linecap:square;stroke-linejoin:miter;stroke-width:0.8;"/>
   </g>
   <g id="patch_8">
    <path d="M 10.7 7.2 
L 207.641176 7.2 
" style="fill:none;stroke:#000000;stroke-linecap:square;stroke-linejoin:miter;stroke-width:0.8;"/>
   </g>
  </g>
  <g id="axes_2">
   <g id="patch_9">
    <path d="M 247.029412 155.454545 
L 443.970588 155.454545 
L 443.970588 7.2 
L 247.029412 7.2 
z
" style="fill:#ffffff;"/>
   </g>
   <g id="patch_10">
    <path clip-path="url(#p5c0b284231)" d="M 345.5 148.715702 
C 363.37162 148.715702 380.513672 141.615232 393.150816 128.978088 
C 405.78796 116.340944 412.88843 99.198893 412.88843 81.327273 
C 412.88843 63.455652 405.78796 46.313601 393.150816 33.676457 
C 380.513672 21.039313 363.37162 13.938843 345.5 13.938843 
C 327.62838 13.938843 310.486328 21.039313 297.849184 33.676457 
C 285.21204 46.313601 278.11157 63.455652 278.11157 81.327273 
C 278.11157 99.198893 285.21204 116.340944 297.849184 128.978088 
C 310.486328 141.615232 327.62838 148.715702 345.5 148.715702 
z
"/>
   </g>
   <g id="matplotlib.axis_3"/>
   <g id="matplotlib.axis_4"/>
   <g id="patch_11">
    <path clip-path="url(#p5c0b284231)" d="M 364.530348 106.832783 
C 370.023604 106.832783 375.29261 104.650289 379.176928 100.765971 
C 383.061247 96.881652 385.24374 91.612647 385.24374 86.119391 
C 385.24374 80.626135 383.061247 75.357129 379.176928 71.472811 
C 375.29261 67.588493 370.023604 65.405999 364.530348 65.405999 
C 359.037093 65.405999 353.768087 67.588493 349.883769 71.472811 
C 345.99945 75.357129 343.816957 80.626135 343.816957 86.119391 
C 343.816957 91.612647 345.99945 96.881652 349.883769 100.765971 
C 353.768087 104.650289 359.037093 106.832783 364.530348 106.832783 
z
" style="fill:#c5e266;"/>
   </g>
   <g id="patch_12">
    <path clip-path="url(#p5c0b284231)" d="M 325.171882 110.640134 
C 328.923886 110.640134 332.522723 109.149447 335.175791 106.49638 
C 337.828859 103.843312 339.319546 100.244475 339.319546 96.492471 
C 339.319546 92.740467 337.828859 89.14163 335.175791 86.488562 
C 332.522723 83.835494 328.923886 82.344807 325.171882 82.344807 
C 321.419878 82.344807 317.821041 83.835494 315.167973 86.488562 
C 312.514906 89.14163 311.024219 92.740467 311.024219 96.492471 
C 311.024219 100.244475 312.514906 103.843312 315.167973 106.49638 
C 317.821041 109.149447 321.419878 110.640134 325.171882 110.640134 
z
" style="fill:#98cc66;"/>
   </g>
   <g id="patch_13">
    <path d="M 247.029412 155.454545 
L 247.029412 7.2 
" style="fill:none;stroke:#000000;stroke-linecap:square;stroke-linejoin:miter;stroke-width:0.8;"/>
   </g>
   <g id="patch_14">
    <path d="M 443.970588 155.454545 
L 443.970588 7.2 
" style="fill:none;stroke:#000000;stroke-linecap:square;stroke-linejoin:miter;stroke-width:0.8;"/>
   </g>
   <g id="patch_15">
    <path d="M 247.029412 155.454545 
L 443.970588 155.454545 
" style="fill:none;stroke:#000000;stroke-linecap:square;stroke-linejoin:miter;stroke-width:0.8;"/>
   </g>
   <g id="patch_16">
    <path d="M 247.029412 7.2 
L 443.970588 7.2 
" style="fill:none;stroke:#000000;stroke-linecap:square;stroke-linejoin:miter;stroke-width:0.8;"/>
   </g>
  </g>
  <g id="axes_3">
   <g id="patch_17">
    <path d="M 483.358824 155.454545 
L 680.3 155.454545 
L 680.3 7.2 
L 483.358824 7.2 
z
" style="fill:#ffffff;"/>
   </g>
   <g id="patch_18">
    <path clip-path="url(#pfa73b1bd01)" d="M 581.829412 148.715702 
C 599.701032 148.715702 616.843083 141.615232 629.480227 128.978088 
C 642.117371 116.340944 649.217842 99.198893 649.217842 81.327273 
C 649.217842 63.455652 642.117371 46.313601 629.480227 33.676457 
C 616.843083 21.039313 599.701032 13.938843 581.829412 13.938843 
C 563.957791 13.938843 546.81574 21.039313 534.178596 33.676457 
C 521.541452 46.313601 514.440982 63.455652 514.440982 81.327273 
C 514.440982 99.198893 521.541452 116.340944 534.178596 128.978088 
C 546.81574 141.615232 563.957791 148.715702 581.829412 148.715702 
z
"/>
   </g>
   <g id="matplotlib.axis_5"/>
   <g id="matplotlib.axis_6"/>
   <g id="patch_19">
    <path clip-path="url(#pfa73b1bd01)" d="M 600.85976 106.832783 
C 606.353016 106.832783 611.622022 104.650289 615.50634 100.765971 
C 619.390658 96.881652 621.573152 91.612647 621.573152 86.119391 
C 621.573152 80.626135 619.390658 75.357129 615.50634 71.472811 
C 611.622022 67.588493 606.353016 65.405999 600.85976 65.405999 
C 595.366504 65.405999 590.097499 67.588493 586.21318 71.472811 
C 582.328862 75.357129 580.146368 80.626135 580.146368 86.119391 
C 580.146368 91.612647 582.328862 96.881652 586.21318 100.765971 
C 590.097499 104.650289 595.366504 106.832783 600.85976 106.832783 
z
" style="fill:#c5e266;"/>
   </g>
   <g id="patch_20">
    <path clip-path="url(#pfa73b1bd01)" d="M 561.501294 110.640134 
C 565.253298 110.640134 568.852135 109.149447 571.505203 106.49638 
C 574.15827 103.843312 575.648957 100.244475 575.648957 96.492471 
C 575.648957 92.740467 574.15827 89.14163 571.505203 86.488562 
C 568.852135 83.835494 565.253298 82.344807 561.501294 82.344807 
C 557.74929 82.344807 554.150453 83.835494 551.497385 86.488562 
C 548.844317 89.14163 547.35363 92.740467 547.35363 96.492471 
C 547.35363 100.244475 548.844317 103.843312 551.497385 106.49638 
C 554.150453 109.149447 557.74929 110.640134 561.501294 110.640134 
z
" style="fill:#98cc66;"/>
   </g>
   <g id="patch_21">
    <path clip-path="url(#pfa73b1bd01)" d="M 618.115101 58.635373 
C 621.117118 58.635373 623.996584 57.442659 626.119331 55.319912 
C 628.242077 53.197166 629.434791 50.3177 629.434791 47.315683 
C 629.434791 44.313666 628.242077 41.4342 626.119331 39.311453 
C 623.996584 37.188707 621.117118 35.995993 618.115101 35.995993 
C 615.113084 35.995993 612.233618 37.188707 610.110872 39.311453 
C 607.988125 41.4342 606.795411 44.313666 606.795411 47.315683 
C 606.795411 50.3177 607.988125 53.197166 610.110872 55.319912 
C 612.233618 57.442659 615.113084 58.635373 618.115101 58.635373 
z
" style="fill:#3e9e66;"/>
   </g>
   <g id="patch_22">
    <path d="M 483.358824 155.454545 
L 483.358824 7.2 
" style="fill:none;stroke:#000000;stroke-linecap:square;stroke-linejoin:miter;stroke-width:0.8;"/>
   </g>
   <g id="patch_23">
    <path d="M 680.3 155.454545 
L 680.3 7.2 
" style="fill:none;stroke:#000000;stroke-linecap:square;stroke-linejoin:miter;stroke-width:0.8;"/>
   </g>
   <g id="patch_24">
    <path d="M 483.358824 155.454545 
L 680.3 155.454545 
" style="fill:none;stroke:#000000;stroke-linecap:square;stroke-linejoin:miter;stroke-width:0.8;"/>
   </g>
   <g id="patch_25">
    <path d="M 483.358824 7.2 
L 680.3 7.2 
" style="fill:none;stroke:#000000;stroke-linecap:square;stroke-linejoin:miter;stroke-width:0.8;"/>
   </g>
  </g>
  <g id="axes_4">
   <g id="patch_26">
    <path d="M 10.7 333.36 
L 207.641176 333.36 
L 207.641176 185.105455 
L 10.7 185.105455 
z
" style="fill:#ffffff;"/>
   </g>
   <g id="patch_27">
    <path clip-path="url(#p0f819cc42d)" d="M 109.170588 326.621157 
C 127.042209 326.621157 144.18426 319.520687 156.821404 306.883543 
C 169.458548 294.246399 176.559018 277.104348 176.559018 259.232727 
C 176.559018 241.361107 169.458548 224.219056 156.821404 211.581912 
C 144.18426 198.944768 127.042209 191.844298 109.170588 191.844298 
C 91.298968 191.844298 74.156917 198.944768 61.519773 211.581912 
C 48.882629 224.219056 41.782158 241.361107 41.782158 259.232727 
C 41.782158 277.104348 48.882629 294.246399 61.519773 306.883543 
C 74.156917 319.520687 91.298968 326.621157 109.170588 326.621157 
z
"/>
   </g>
   <g id="matplotlib.axis_7"/>
   <g id="matplotlib.axis_8"/>
   <g id="patch_28">
    <path clip-path="url(#p0f819cc42d)" d="M 128.200937 284.738237 
C 133.694192 284.738237 138.963198 282.555744 142.847516 278.671425 
C 146.731835 274.787107 148.914328 269.518101 148.914328 264.024845 
C 148.914328 258.53159 146.731835 253.262584 142.847516 249.378266 
C 138.963198 245.493947 133.694192 243.311454 128.200937 243.311454 
C 122.707681 243.311454 117.438675 245.493947 113.554357 249.378266 
C 109.670038 253.262584 107.487545 258.53159 107.487545 264.024845 
C 107.487545 269.518101 109.670038 274.787107 113.554357 278.671425 
C 117.438675 282.555744 122.707681 284.738237 128.200937 284.738237 
z
" style="fill:#c5e266;"/>
   </g>
   <g id="patch_29">
    <path clip-path="url(#p0f819cc42d)" d="M 88.84247 288.545589 
C 92.594475 288.545589 96.193312 287.054902 98.846379 284.401834 
C 101.499447 281.748766 102.990134 278.14993 102.990134 274.397925 
C 102.990134 270.645921 101.499447 267.047084 98.846379 264.394016 
C 96.193312 261.740949 92.594475 260.250262 88.84247 260.250262 
C 85.090466 260.250262 81.491629 261.740949 78.838562 264.394016 
C 76.185494 267.047084 74.694807 270.645921 74.694807 274.397925 
C 74.694807 278.14993 76.185494 281.748766 78.838562 284.401834 
C 81.491629 287.054902 85.090466 288.545589 88.84247 288.545589 
z
" style="fill:#98cc66;"/>
   </g>
   <g id="patch_30">
    <path clip-path="url(#p0f819cc42d)" d="M 145.456278 236.540827 
C 148.458295 236.540827 151.337761 235.348113 153.460507 233.225367 
C 155.583254 231.10262 156.775968 228.223154 156.775968 225.221137 
C 156.775968 222.21912 155.583254 219.339654 153.460507 217.216908 
C 151.337761 215.094161 148.458295 213.901447 145.456278 213.901447 
C 142.454261 213.901447 139.574795 215.094161 137.452048 217.216908 
C 135.329302 219.339654 134.136588 222.21912 134.136588 225.221137 
C 134.136588 228.223154 135.329302 231.10262 137.452048 233.225367 
C 139.574795 235.348113 142.454261 236.540827 145.456278 236.540827 
z
" style="fill:#3e9e66;"/>
   </g>
   <g id="patch_31">
    <path clip-path="url(#p0f819cc42d)" d="M 61.50083 257.643888 
C 64.063525 257.643888 66.521603 256.625719 68.333701 254.81362 
C 70.1458 253.001522 71.163969 250.543444 71.163969 247.980749 
C 71.163969 245.418055 70.1458 242.959977 68.333701 241.147878 
C 66.521603 239.335779 64.063525 238.31761 61.50083 238.31761 
C 58.938136 238.31761 56.480058 239.335779 54.667959 241.147878 
C 52.855861 242.959977 51.837691 245.418055 51.837691 247.980749 
C 51.837691 250.543444 52.855861 253.001522 54.667959 254.81362 
C 56.480058 256.625719 58.938136 257.643888 61.50083 257.643888 
z
" style="fill:#cce666;"/>
   </g>
   <g id="patch_32">
    <path d="M 10.7 333.36 
L 10.7 185.105455 
" style="fill:none;stroke:#000000;stroke-linecap:square;stroke-linejoin:miter;stroke-width:0.8;"/>
   </g>
   <g id="patch_33">
    <path d="M 207.641176 333.36 
L 207.641176 185.105455 
" style="fill:none;stroke:#000000;stroke-linecap:square;stroke-linejoin:miter;stroke-width:0.8;"/>
   </g>
   <g id="patch_34">
    <path d="M 10.7 333.36 
L 207.641176 333.36 
" style="fill:none;stroke:#000000;stroke-linecap:square;stroke-linejoin:miter;stroke-width:0.8;"/>
   </g>
   <g id="patch_35">
    <path d="M 10.7 185.105455 
L 207.641176 185.105455 
" style="fill:none;stroke:#000000;stroke-linecap:square;stroke-linejoin:miter;stroke-width:0.8;"/>
   </g>
  </g>
  <g id="axes_5">
   <g id="patch_36">
    <path d="M 247.029412 333.36 
L 443.970588 333.36 
L 443.970588 185.105455 
L 247.029412 185.105455 
z
" style="fill:#ffffff;"/>
   </g>
   <g id="matplotlib.axis_9"/>
   <g id="matplotlib.axis_10"/>
   <g id="patch_37">
    <path d="M 247.029412 333.36 
L 247.029412 185.105455 
" style="fill:none;stroke:#000000;stroke-linecap:square;stroke-linejoin:miter;stroke-width:0.8;"/>
   </g>
   <g id="patch_38">
    <path d="M 443.970588 333.36 
L 443.970588 185.105455 
" style="fill:none;stroke:#000000;stroke-linecap:square;stroke-linejoin:miter;stroke-width:0.8;"/>
   </g>
   <g id="patch_39">
    <path d="M 247.029412 333.36 
L 443.970588 333.36 
" style="fill:none;stroke:#000000;stroke-linecap:square;stroke-linejoin:miter;stroke-width:0.8;"/>
   </g>
   <g id="patch_40">
    <path d="M 247.029412 185.105455 
L 443.970588 185.105455 
" style="fill:none;stroke:#000000;stroke-linecap:square;stroke-linejoin:miter;stroke-width:0.8;"/>
   </g>
   <g id="text_1">
    <!-- ... -->
    <defs>
     <path d="M 10.6875 12.40625 
L 21 12.40625 
L 21 0 
L 10.6875 0 
z
" id="DejaVuSans-46"/>
    </defs>
    <g transform="translate(325.805882 259.232727)scale(0.4 -0.4)">
     <use xlink:href="#DejaVuSans-46"/>
     <use x="31.787109" xlink:href="#DejaVuSans-46"/>
     <use x="63.574219" xlink:href="#DejaVuSans-46"/>
    </g>
   </g>
  </g>
  <g id="axes_6">
   <g id="patch_41">
    <path d="M 483.358824 333.36 
L 680.3 333.36 
L 680.3 185.105455 
L 483.358824 185.105455 
z
" style="fill:#ffffff;"/>
   </g>
   <g id="patch_42">
    <path clip-path="url(#pdaffacfa19)" d="M 581.829412 326.621157 
C 599.701032 326.621157 616.843083 319.520687 629.480227 306.883543 
C 642.117371 294.246399 649.217842 277.104348 649.217842 259.232727 
C 649.217842 241.361107 642.117371 224.219056 629.480227 211.581912 
C 616.843083 198.944768 599.701032 191.844298 581.829412 191.844298 
C 563.957791 191.844298 546.81574 198.944768 534.178596 211.581912 
C 521.541452 224.219056 514.440982 241.361107 514.440982 259.232727 
C 514.440982 277.104348 521.541452 294.246399 534.178596 306.883543 
C 546.81574 319.520687 563.957791 326.621157 581.829412 326.621157 
z
"/>
   </g>
   <g id="matplotlib.axis_11"/>
   <g id="matplotlib.axis_12"/>
   <g id="patch_43">
    <path clip-path="url(#pdaffacfa19)" d="M 600.85976 284.738237 
C 606.353016 284.738237 611.622022 282.555744 615.50634 278.671425 
C 619.390658 274.787107 621.573152 269.518101 621.573152 264.024845 
C 621.573152 258.53159 619.390658 253.262584 615.50634 249.378266 
C 611.622022 245.493947 606.353016 243.311454 600.85976 243.311454 
C 595.366504 243.311454 590.097499 245.493947 586.21318 249.378266 
C 582.328862 253.262584 580.146368 258.53159 580.146368 264.024845 
C 580.146368 269.518101 582.328862 274.787107 586.21318 278.671425 
C 590.097499 282.555744 595.366504 284.738237 600.85976 284.738237 
z
" style="fill:#c5e266;"/>
   </g>
   <g id="patch_44">
    <path clip-path="url(#pdaffacfa19)" d="M 561.501294 288.545589 
C 565.253298 288.545589 568.852135 287.054902 571.505203 284.401834 
C 574.15827 281.748766 575.648957 278.14993 575.648957 274.397925 
C 575.648957 270.645921 574.15827 267.047084 571.505203 264.394016 
C 568.852135 261.740949 565.253298 260.250262 561.501294 260.250262 
C 557.74929 260.250262 554.150453 261.740949 551.497385 264.394016 
C 548.844317 267.047084 547.35363 270.645921 547.35363 274.397925 
C 547.35363 278.14993 548.844317 281.748766 551.497385 284.401834 
C 554.150453 287.054902 557.74929 288.545589 561.501294 288.545589 
z
" style="fill:#98cc66;"/>
   </g>
   <g id="patch_45">
    <path clip-path="url(#pdaffacfa19)" d="M 618.115101 236.540827 
C 621.117118 236.540827 623.996584 235.348113 626.119331 233.225367 
C 628.242077 231.10262 629.434791 228.223154 629.434791 225.221137 
C 629.434791 222.21912 628.242077 219.339654 626.119331 217.216908 
C 623.996584 215.094161 621.117118 213.901447 618.115101 213.901447 
C 615.113084 213.901447 612.233618 215.094161 610.110872 217.216908 
C 607.988125 219.339654 606.795411 222.21912 606.795411 225.221137 
C 606.795411 228.223154 607.988125 231.10262 610.110872 233.225367 
C 612.233618 235.348113 615.113084 236.540827 618.115101 236.540827 
z
" style="fill:#3e9e66;"/>
   </g>
   <g id="patch_46">
    <path clip-path="url(#pdaffacfa19)" d="M 534.159654 257.643888 
C 536.722348 257.643888 539.180426 256.625719 540.992525 254.81362 
C 542.804624 253.001522 543.822793 250.543444 543.822793 247.980749 
C 543.822793 245.418055 542.804624 242.959977 540.992525 241.147878 
C 539.180426 239.335779 536.722348 238.31761 534.159654 238.31761 
C 531.596959 238.31761 529.138881 239.335779 527.326783 241.147878 
C 525.514684 242.959977 524.496515 245.418055 524.496515 247.980749 
C 524.496515 250.543444 525.514684 253.001522 527.326783 254.81362 
C 529.138881 256.625719 531.596959 257.643888 534.159654 257.643888 
z
" style="fill:#cce666;"/>
   </g>
   <g id="patch_47">
    <path clip-path="url(#pdaffacfa19)" d="M 614.234791 310.037515 
C 616.501502 310.037515 618.675681 309.13694 620.278488 307.534133 
C 621.881295 305.931326 622.78187 303.757147 622.78187 301.490436 
C 622.78187 299.223724 621.881295 297.049545 620.278488 295.446738 
C 618.675681 293.843931 616.501502 292.943357 614.234791 292.943357 
C 611.968079 292.943357 609.7939 293.843931 608.191093 295.446738 
C 606.588286 297.049545 605.687712 299.223724 605.687712 301.490436 
C 605.687712 303.757147 606.588286 305.931326 608.191093 307.534133 
C 609.7939 309.13694 611.968079 310.037515 614.234791 310.037515 
z
" style="fill:#4ba566;"/>
   </g>
   <g id="patch_48">
    <path clip-path="url(#pdaffacfa19)" d="M 584.295728 322.326593 
C 586.346166 322.326593 588.312899 321.511945 589.762778 320.062066 
C 591.212656 318.612188 592.027304 316.645454 592.027304 314.595016 
C 592.027304 312.544579 591.212656 310.577845 589.762778 309.127967 
C 588.312899 307.678088 586.346166 306.86344 584.295728 306.86344 
C 582.24529 306.86344 580.278557 307.678088 578.828678 309.127967 
C 577.378799 310.577845 576.564152 312.544579 576.564152 314.595016 
C 576.564152 316.645454 577.378799 318.612188 578.828678 320.062066 
C 580.278557 321.511945 582.24529 322.326593 584.295728 322.326593 
z
" style="fill:#bfdf66;"/>
   </g>
   <g id="patch_49">
    <path clip-path="url(#pdaffacfa19)" d="M 559.106001 319.051108 
C 560.989763 319.051108 562.796624 318.302681 564.128644 316.970661 
C 565.460665 315.63864 566.209091 313.831779 566.209091 311.948018 
C 566.209091 310.064257 565.460665 308.257396 564.128644 306.925375 
C 562.796624 305.593355 560.989763 304.844928 559.106001 304.844928 
C 557.22224 304.844928 555.415379 305.593355 554.083358 306.925375 
C 552.751338 308.257396 552.002912 310.064257 552.002912 311.948018 
C 552.002912 313.831779 552.751338 315.63864 554.083358 316.970661 
C 555.415379 318.302681 557.22224 319.051108 559.106001 319.051108 
z
" style="fill:#2b9566;"/>
   </g>
   <g id="patch_50">
    <path clip-path="url(#pdaffacfa19)" d="M 569.611945 309.449089 
C 571.362317 309.449089 573.041234 308.753659 574.278933 307.515959 
C 575.516633 306.278259 576.212063 304.599342 576.212063 302.848971 
C 576.212063 301.098599 575.516633 299.419682 574.278933 298.181982 
C 573.041234 296.944282 571.362317 296.248852 569.611945 296.248852 
C 567.861573 296.248852 566.182656 296.944282 564.944956 298.181982 
C 563.707257 299.419682 563.011826 301.098599 563.011826 302.848971 
C 563.011826 304.599342 563.707257 306.278259 564.944956 307.515959 
C 566.182656 308.753659 567.861573 309.449089 569.611945 309.449089 
z
" style="fill:#90c866;"/>
   </g>
   <g id="patch_51">
    <path clip-path="url(#pdaffacfa19)" d="M 583.045898 243.717089 
C 584.686475 243.717089 586.260078 243.065281 587.420141 241.905218 
C 588.580203 240.745155 589.232011 239.171552 589.232011 237.530976 
C 589.232011 235.890399 588.580203 234.316796 587.420141 233.156733 
C 586.260078 231.996671 584.686475 231.344863 583.045898 231.344863 
C 581.405322 231.344863 579.831718 231.996671 578.671656 233.156733 
C 577.511593 234.316796 576.859785 235.890399 576.859785 237.530976 
C 576.859785 239.171552 577.511593 240.745155 578.671656 241.905218 
C 579.831718 243.065281 581.405322 243.717089 583.045898 243.717089 
z
" style="fill:#eff766;"/>
   </g>
   <g id="patch_52">
    <path clip-path="url(#pdaffacfa19)" d="M 553.610218 224.975794 
C 555.158427 224.975794 556.643435 224.360684 557.738185 223.265934 
C 558.832934 222.171184 559.448045 220.686177 559.448045 219.137967 
C 559.448045 217.589757 558.832934 216.104749 557.738185 215.01 
C 556.643435 213.91525 555.158427 213.30014 553.610218 213.30014 
C 552.062008 213.30014 550.577 213.91525 549.48225 215.01 
C 548.387501 216.104749 547.772391 217.589757 547.772391 219.137967 
C 547.772391 220.686177 548.387501 222.171184 549.48225 223.265934 
C 550.577 224.360684 552.062008 224.975794 553.610218 224.975794 
z
" style="fill:#49a466;"/>
   </g>
   <g id="patch_53">
    <path clip-path="url(#pdaffacfa19)" d="M 639.565152 276.370365 
C 641.034295 276.370365 642.443462 275.786669 643.482303 274.747828 
C 644.521143 273.708988 645.10484 272.29982 645.10484 270.830678 
C 645.10484 269.361536 644.521143 267.952368 643.482303 266.913528 
C 642.443462 265.874687 641.034295 265.290991 639.565152 265.290991 
C 638.09601 265.290991 636.686842 265.874687 635.648002 266.913528 
C 634.609162 267.952368 634.025465 269.361536 634.025465 270.830678 
C 634.025465 272.29982 634.609162 273.708988 635.648002 274.747828 
C 636.686842 275.786669 638.09601 276.370365 639.565152 276.370365 
z
" style="fill:#a0d066;"/>
   </g>
   <g id="patch_54">
    <path clip-path="url(#pdaffacfa19)" d="M 568.71108 206.042823 
C 570.11157 206.042823 571.454889 205.486403 572.445185 204.496106 
C 573.435481 203.50581 573.991902 202.162492 573.991902 200.762001 
C 573.991902 199.361511 573.435481 198.018193 572.445185 197.027896 
C 571.454889 196.0376 570.11157 195.481179 568.71108 195.481179 
C 567.31059 195.481179 565.967271 196.0376 564.976975 197.027896 
C 563.986679 198.018193 563.430258 199.361511 563.430258 200.762001 
C 563.430258 202.162492 563.986679 203.50581 564.976975 204.496106 
C 565.967271 205.486403 567.31059 206.042823 568.71108 206.042823 
z
" style="fill:#f3f966;"/>
   </g>
   <g id="patch_55">
    <path clip-path="url(#pdaffacfa19)" d="M 531.341158 292.12464 
C 532.681331 292.12464 533.966795 291.592183 534.91444 290.644538 
C 535.862086 289.696892 536.394542 288.411428 536.394542 287.071255 
C 536.394542 285.731082 535.862086 284.445618 534.91444 283.497972 
C 533.966795 282.550327 532.681331 282.01787 531.341158 282.01787 
C 530.000984 282.01787 528.715521 282.550327 527.767875 283.497972 
C 526.820229 284.445618 526.287773 285.731082 526.287773 287.071255 
C 526.287773 288.411428 526.820229 289.696892 527.767875 290.644538 
C 528.715521 291.592183 530.000984 292.12464 531.341158 292.12464 
z
" style="fill:#43a166;"/>
   </g>
   <g id="patch_56">
    <path clip-path="url(#pdaffacfa19)" d="M 637.103936 236.963559 
C 638.390583 236.963559 639.624706 236.452369 640.534502 235.542572 
C 641.444299 234.632775 641.955489 233.398653 641.955489 232.112006 
C 641.955489 230.825359 641.444299 229.591236 640.534502 228.681439 
C 639.624706 227.771643 638.390583 227.260452 637.103936 227.260452 
C 635.817289 227.260452 634.583167 227.771643 633.67337 228.681439 
C 632.763573 229.591236 632.252383 230.825359 632.252383 232.112006 
C 632.252383 233.398653 632.763573 234.632775 633.67337 235.542572 
C 634.583167 236.452369 635.817289 236.963559 637.103936 236.963559 
z
" style="fill:#91c866;"/>
   </g>
   <g id="patch_57">
    <path clip-path="url(#pdaffacfa19)" d="M 550.780312 248.797817 
C 552.01905 248.797817 553.20722 248.305661 554.08314 247.429741 
C 554.959061 246.553821 555.451217 245.365651 555.451217 244.126913 
C 555.451217 242.888174 554.959061 241.700004 554.08314 240.824084 
C 553.20722 239.948164 552.01905 239.456008 550.780312 239.456008 
C 549.541573 239.456008 548.353403 239.948164 547.477483 240.824084 
C 546.601563 241.700004 546.109407 242.888174 546.109407 244.126913 
C 546.109407 245.365651 546.601563 246.553821 547.477483 247.429741 
C 548.353403 248.305661 549.541573 248.797817 550.780312 248.797817 
z
" style="fill:#dcee66;"/>
   </g>
   <g id="patch_58">
    <path clip-path="url(#pdaffacfa19)" d="M 625.683483 296.942701 
C 626.879022 296.942701 628.025756 296.467708 628.87113 295.622334 
C 629.716504 294.776961 630.191497 293.630227 630.191497 292.434687 
C 630.191497 291.239148 629.716504 290.092414 628.87113 289.24704 
C 628.025756 288.401666 626.879022 287.926674 625.683483 287.926674 
C 624.487944 287.926674 623.34121 288.401666 622.495836 289.24704 
C 621.650462 290.092414 621.175469 291.239148 621.175469 292.434687 
C 621.175469 293.630227 621.650462 294.776961 622.495836 295.622334 
C 623.34121 296.467708 624.487944 296.942701 625.683483 296.942701 
z
" style="fill:#249266;"/>
   </g>
   <g id="patch_59">
    <path clip-path="url(#pdaffacfa19)" d="M 559.076596 212.062991 
C 560.232929 212.062991 561.342057 211.603575 562.159708 210.785924 
C 562.977359 209.968273 563.436775 208.859145 563.436775 207.702812 
C 563.436775 206.546479 562.977359 205.437351 562.159708 204.6197 
C 561.342057 203.802049 560.232929 203.342633 559.076596 203.342633 
C 557.920263 203.342633 556.811135 203.802049 555.993484 204.6197 
C 555.175833 205.437351 554.716417 206.546479 554.716417 207.702812 
C 554.716417 208.859145 555.175833 209.968273 555.993484 210.785924 
C 556.811135 211.603575 557.920263 212.062991 559.076596 212.062991 
z
" style="fill:#6bb566;"/>
   </g>
   <g id="patch_60">
    <path clip-path="url(#pdaffacfa19)" d="M 543.192458 289.024728 
C 544.313004 289.024728 545.387807 288.57953 546.180153 287.787184 
C 546.9725 286.994837 547.417697 285.920035 547.417697 284.799488 
C 547.417697 283.678941 546.9725 282.604139 546.180153 281.811792 
C 545.387807 281.019446 544.313004 280.574248 543.192458 280.574248 
C 542.071911 280.574248 540.997108 281.019446 540.204762 281.811792 
C 539.412416 282.604139 538.967218 283.678941 538.967218 284.799488 
C 538.967218 285.920035 539.412416 286.994837 540.204762 287.787184 
C 540.997108 288.57953 542.071911 289.024728 543.192458 289.024728 
z
" style="fill:#b0d866;"/>
   </g>
   <g id="patch_61">
    <path clip-path="url(#pdaffacfa19)" d="M 588.963615 229.777938 
C 590.051331 229.777938 591.094643 229.345785 591.863774 228.576653 
C 592.632905 227.807522 593.065059 226.76421 593.065059 225.676495 
C 593.065059 224.588779 592.632905 223.545467 591.863774 222.776336 
C 591.094643 222.007205 590.051331 221.575051 588.963615 221.575051 
C 587.8759 221.575051 586.832588 222.007205 586.063457 222.776336 
C 585.294326 223.545467 584.862172 224.588779 584.862172 225.676495 
C 584.862172 226.76421 585.294326 227.807522 586.063457 228.576653 
C 586.832588 229.345785 587.8759 229.777938 588.963615 229.777938 
z
" style="fill:#f3f966;"/>
   </g>
   <g id="patch_62">
    <path clip-path="url(#pdaffacfa19)" d="M 603.849719 294.820812 
C 604.907178 294.820812 605.921468 294.400679 606.669204 293.652943 
C 607.41694 292.905207 607.837073 291.890917 607.837073 290.833458 
C 607.837073 289.776 607.41694 288.76171 606.669204 288.013974 
C 605.921468 287.266238 604.907178 286.846105 603.849719 286.846105 
C 602.792261 286.846105 601.777971 287.266238 601.030235 288.013974 
C 600.282499 288.76171 599.862366 289.776 599.862366 290.833458 
C 599.862366 291.890917 600.282499 292.905207 601.030235 293.652943 
C 601.777971 294.400679 602.792261 294.820812 603.849719 294.820812 
z
" style="fill:#359a66;"/>
   </g>
   <g id="patch_63">
    <path d="M 483.358824 333.36 
L 483.358824 185.105455 
" style="fill:none;stroke:#000000;stroke-linecap:square;stroke-linejoin:miter;stroke-width:0.8;"/>
   </g>
   <g id="patch_64">
    <path d="M 680.3 333.36 
L 680.3 185.105455 
" style="fill:none;stroke:#000000;stroke-linecap:square;stroke-linejoin:miter;stroke-width:0.8;"/>
   </g>
   <g id="patch_65">
    <path d="M 483.358824 333.36 
L 680.3 333.36 
" style="fill:none;stroke:#000000;stroke-linecap:square;stroke-linejoin:miter;stroke-width:0.8;"/>
   </g>
   <g id="patch_66">
    <path d="M 483.358824 185.105455 
L 680.3 185.105455 
" style="fill:none;stroke:#000000;stroke-linecap:square;stroke-linejoin:miter;stroke-width:0.8;"/>
   </g>
  </g>
 </g>
 <defs>
  <clipPath id="p3961cbcda1">
   <rect height="148.254545" width="196.941176" x="10.7" y="7.2"/>
  </clipPath>
  <clipPath id="p5c0b284231">
   <rect height="148.254545" width="196.941176" x="247.029412" y="7.2"/>
  </clipPath>
  <clipPath id="pfa73b1bd01">
   <rect height="148.254545" width="196.941176" x="483.358824" y="7.2"/>
  </clipPath>
  <clipPath id="p0f819cc42d">
   <rect height="148.254545" width="196.941176" x="10.7" y="185.105455"/>
  </clipPath>
  <clipPath id="pdaffacfa19">
   <rect height="148.254545" width="196.941176" x="483.358824" y="185.105455"/>
  </clipPath>
 </defs>
</svg>
